<svg xmlns="http://www.w3.org/2000/svg" xml:space="preserve" style="fill-rule:evenodd;clip-rule:evenodd;stroke-linejoin:round;stroke-miterlimit:2" viewBox="0 0 1882 738"><path d="M5870.37 2769.76h2035.4v930.341h-2035.4z" style="fill:none" transform="matrix(.9246 0 0 .7925 -5427.716 -2195.048)"/><path d="M400.162 624.437c-29.227 18.372-63.808 28.993-100.849 28.993-104.8 0-189.884-85.076-189.884-189.88 0-72.726 40.976-135.964 101.082-167.856a192.349 192.349 0 0 1-.235-9.518c0-104.805 85.085-189.89 189.886-189.89 104.795 0 189.88 85.085 189.88 189.89 0 3.192-.078 6.364-.234 9.518 60.104 31.892 101.085 95.13 101.085 167.856 0 104.804-85.085 189.88-189.89 189.88-37.037 0-71.614-10.621-100.84-28.993Zm-27.665-300.512c-.235.176-.469.361-.713.537-21.681-11.324-46.332-17.737-72.47-17.737-18.651 0-36.546 3.27-53.144 9.254a155.974 155.974 0 0 0-30.575 14.975c-43.92 27.802-73.105 76.816-73.105 132.596 0 86.55 70.27 156.826 156.823 156.826 26.139 0 50.79-6.414 72.471-17.738-36.023-33.493-59.036-80.79-60.579-133.436h33.08c1.627 45.872 22.999 86.765 55.877 114.41a157.435 157.435 0 0 0 28.368 19.026c21.682 11.324 46.34 17.738 72.473 17.738 86.56 0 156.826-70.276 156.826-156.826 0-55.78-29.188-104.794-73.107-132.596-11.851 48.956-42.709 90.542-84.305 116.47l-16.448-28.008-.088-.644c35.894-22.726 61.95-59.616 70.266-102.793a157.008 157.008 0 0 0 2.783-33.933c-2.187-84.645-71.595-152.696-156.768-152.696-85.176 0-154.58 68.05-156.771 152.696 17.682-5.447 36.462-8.375 55.922-8.375 32.367 0 62.856 8.112 89.535 22.413l-16.351 27.841Z"/><text x="6899.19" y="3622.7" style="font-family:&quot;DINAlternate-Bold&quot;,&quot;DIN Alternate&quot;,sans-serif;font-weight:700;font-size:762.935px" transform="translate(-2837.38 -1388.252) scale(.53269)">ECEP</text></svg>